<svg width="69" height="69" viewBox="0 0 69 69" fill="none" xmlns="http://www.w3.org/2000/svg">
<rect x="21.2133" y="-23" width="100" height="30" transform="rotate(45 21.2133 -23)" fill="#EE3643"/>
<path d="M33.4527 19.1096L40.3823 12.1799L41.3723 13.1699L38.5014 20.0995L38.5509 20.149L43.4512 15.2488L44.3421 16.1397L37.4125 23.0694L36.4226 22.0794L39.2934 15.1498L39.2439 15.1003L34.3437 20.0005L33.4527 19.1096ZM38.7988 24.4557L45.7285 17.526L49.0943 20.8919L48.4013 21.5848L45.9264 19.1099L43.6496 21.3868L45.8275 23.5647L45.1345 24.2577L42.9566 22.0798L40.3827 24.6537L42.8576 27.1285L42.1646 27.8215L38.7988 24.4557ZM43.899 29.5558L49.6902 21.4878L50.5811 22.3787L46.1264 28.6154L46.1759 28.6649L51.3236 25.695L52.2146 26.586L49.2447 31.7337L49.2942 31.7832L55.5309 27.3285L56.4218 28.2194L48.3538 34.0106L47.2648 32.9217L50.304 27.6452L50.2644 27.6056L44.9879 30.6448L43.899 29.5558Z" fill="white"/>
</svg>
